HIERARCHY
ROOT Pelvis
{
	OFFSET 0.000000 0.000000 0.000000
	CHANNELS 6 Xposition Yposition Zposition Zrotation Yrotation Xrotation 
	JOINT Left_hip
	{
		OFFSET 0.076090 -0.089427 -0.010735
		CHANNELS 3 Zrotation Yrotation Xrotation
		JOINT Left_knee
		{
			OFFSET 0.030200 -0.359518 -0.003501
			CHANNELS 3 Zrotation Yrotation Xrotation
			JOINT Left_ankle
			{
				OFFSET -0.011005 -0.371022 -0.045888
				CHANNELS 3 Zrotation Yrotation Xrotation
				JOINT Left_foot
				{
					OFFSET 0.023930 -0.052103 0.111084
					CHANNELS 3 Zrotation Yrotation Xrotation
					End Site
					{
						OFFSET 0.000000 0.000000 0.000000
					}
				}
			}
		}
	}
	JOINT Right_hip
	{
		OFFSET -0.073836 -0.088112 -0.007709
		CHANNELS 3 Zrotation Yrotation Xrotation
		JOINT Right_knee
		{
			OFFSET -0.035715 -0.367809 -0.006536
			CHANNELS 3 Zrotation Yrotation Xrotation
			JOINT Right_ankle
			{
				OFFSET 0.013718 -0.371958 -0.043815
				CHANNELS 3 Zrotation Yrotation Xrotation
				JOINT Right_foot
				{
					OFFSET -0.021936 -0.046387 0.114542
					CHANNELS 3 Zrotation Yrotation Xrotation
					End Site
					{
						OFFSET 0.000000 0.000000 0.000000
					}
				}
			}
		}
	}
	JOINT Spine1
	{
		OFFSET -0.001865 0.102064 -0.019455
		CHANNELS 3 Zrotation Yrotation Xrotation
		JOINT Spine2
		{
			OFFSET 0.003082 0.129260 -0.001938
			CHANNELS 3 Zrotation Yrotation Xrotation
			JOINT Spine3
			{
				OFFSET 0.001104 0.048093 0.026561
				CHANNELS 3 Zrotation Yrotation Xrotation
				JOINT Neck
				{
					OFFSET -0.002010 0.204222 -0.047183
					CHANNELS 3 Zrotation Yrotation Xrotation
					JOINT Head
					{
						OFFSET 0.005050 0.063649 0.048489
						CHANNELS 3 Zrotation Yrotation Xrotation
						End Site
						{
							OFFSET 0.000000 0.000000 0.000000
						}
					}
				}
				JOINT Left_collar
				{
					OFFSET 0.072979 0.114065 -0.031633
					CHANNELS 3 Zrotation Yrotation Xrotation
					JOINT Left_shoulder
					{
						OFFSET 0.083419 0.032092 -0.006530
						CHANNELS 3 Zrotation Yrotation Xrotation
						JOINT Left_elbow
						{
							OFFSET 0.239393 -0.012014 -0.025060
							CHANNELS 3 Zrotation Yrotation Xrotation
							JOINT Left_wrist
							{
								OFFSET 0.227297 0.008116 0.000384
								CHANNELS 3 Zrotation Yrotation Xrotation
								JOINT Left_palm
								{
									OFFSET 0.074607 -0.009248 -0.012277
									CHANNELS 3 Zrotation Yrotation Xrotation
									End Site
									{
										OFFSET 0.000000 0.000000 0.000000
									}
								}
							}
						}
					}
				}
				JOINT Right_collar
				{
					OFFSET -0.074980 0.111880 -0.037894
					CHANNELS 3 Zrotation Yrotation Xrotation
					JOINT Right_shoulder
					{
						OFFSET -0.087565 0.034353 -0.009323
						CHANNELS 3 Zrotation Yrotation Xrotation
						JOINT Right_elbow
						{
							OFFSET -0.236838 -0.013719 -0.019794
							CHANNELS 3 Zrotation Yrotation Xrotation
							JOINT Right_wrist
							{
								OFFSET -0.235053 0.006433 -0.003853
								CHANNELS 3 Zrotation Yrotation Xrotation
								JOINT Right_palm
								{
									OFFSET -0.075499 -0.006894 -0.009792
									CHANNELS 3 Zrotation Yrotation Xrotation
									End Site
									{
										OFFSET 0.000000 0.000000 0.000000
									}
								}
							}
						}
					}
				}
			}
		}
	}
}
MOTION
Frames: 9
Frame Time: 0.100000
-1.346678 -0.020966 0.016867 2.404543 -2.482412 -173.863996 -1.195377 -5.764813 -20.527953 -4.187877 11.983778 -6.914359 -7.541679 4.431118 0.858052 19.426056 10.728753 -7.070115 3.773552 -2.205360 17.692138 -1.097919 4.155835 4.859602 3.790929 -4.409797 -21.673034 -11.664576 -0.985636 -1.695990 2.467320 7.451601 6.608593 2.045082 -2.325788 4.534198 1.197539 2.500671 2.688112 -7.587808 13.043687 -15.117745 -10.643975 1.974179 5.602547 -16.684771 -1.045575 2.775031 -74.959872 0.277941 21.519996 157.971553 -72.840640 -139.863628 2.873796 -7.863856 -57.008822 -12.827298 -2.439031 0.748050 15.222144 8.372199 -0.926324 70.578243 20.668457 26.870913 -157.837980 33.521995 -130.030179 -9.773477 11.808684 -26.811170 14.245141 7.767127 -5.888240 
-1.347793 0.009361 -0.070600 1.510154 -2.480974 -172.263978 -0.633260 -6.181790 -25.444848 -4.070966 15.508938 2.057669 -5.902953 4.859620 -1.847823 19.116535 11.163216 -7.262707 2.209612 -3.575698 22.983669 -1.159454 6.018057 4.030424 5.167505 -4.032312 -22.321821 -13.658813 -0.353148 -2.784970 1.263756 9.459630 4.168462 1.538749 -2.755053 3.436341 0.341491 2.655134 2.735614 -7.993931 14.795473 -15.595922 -11.153041 4.376537 8.032973 -17.173181 -0.676570 2.539213 -73.777868 -0.070647 21.586507 161.821550 -73.883054 -143.798906 2.283283 -8.309938 -56.081204 -14.050427 -2.475037 1.006582 16.077285 7.142688 -0.979318 70.099267 20.174271 27.203408 -157.915337 33.573880 -130.675414 -9.074304 12.179750 -27.260672 15.076080 7.990582 -6.063434 
-1.338307 0.029675 -0.177722 -0.619955 -1.151919 -170.061731 -2.416270 -10.177052 -26.844903 -2.787817 16.531399 11.274363 -1.538324 7.036507 0.572999 16.510368 12.116881 -8.936336 -0.982297 -2.653670 22.219608 -0.966246 7.440857 13.996664 7.432614 -4.284628 -16.665188 -14.861248 1.258973 -5.855463 -1.275923 10.174479 -0.060564 0.867002 -1.384519 1.983472 -1.310442 3.022943 1.442295 -6.725001 15.612702 -14.816790 -11.767163 6.518785 11.992795 -20.207075 1.413190 2.211427 -69.067808 0.159528 22.553110 168.085920 -74.734148 -151.043948 -0.164040 -9.468194 -51.933222 -17.072748 -3.248557 -0.532969 20.122354 5.914399 -0.737808 66.650496 20.449343 28.828703 -157.419459 33.367108 -131.815006 -6.479811 12.532021 -25.514589 16.498559 8.526375 -6.635502 
-1.329466 0.035112 -0.276570 -2.692295 -0.819418 -171.459813 -7.553914 -12.316639 -18.190134 -3.488346 10.634666 10.961369 5.833253 7.657691 -0.210773 11.441342 12.580098 -10.348303 -2.506065 -1.097692 11.845163 0.643967 9.284735 42.199679 13.602425 -6.997550 0.547743 -19.437389 4.564526 -15.661658 -2.759986 8.221687 -0.975288 0.170454 0.787308 1.821085 -2.165168 2.931287 1.793133 -7.361803 13.638912 -14.271917 -11.909625 9.549199 11.596102 -18.939219 1.140886 1.777074 -71.143204 -0.927355 23.074694 167.611300 -70.472194 -154.504416 5.387414 0.424410 -57.832682 -22.186977 -6.134759 -1.404081 17.929311 7.548933 -1.795134 68.044247 21.772018 31.299241 -157.150335 32.104589 -133.710053 -8.065190 8.305752 -21.389401 20.215081 11.333702 -9.270991 
-1.320718 0.036968 -0.351664 -2.069262 -1.718269 -173.285487 -10.019820 -8.423360 -7.200732 -3.670092 5.845106 6.272288 4.476962 8.176221 -3.416217 12.563809 12.820389 -11.494477 -3.556737 0.035686 -2.023487 -0.414272 3.457480 62.600717 13.977968 -11.129708 -4.880136 -22.762355 5.575145 -17.592985 -0.801293 4.922162 1.622660 0.150488 2.263340 2.394694 -2.244976 1.996896 1.783129 -8.037224 14.846437 -16.841394 -14.006736 11.979343 10.661248 -18.792022 0.381596 2.022849 -72.321240 -2.767307 22.193606 162.257246 -68.474646 -149.172043 6.760790 -0.975389 -58.510951 -17.363997 -4.687454 1.341436 17.853127 8.292559 -2.655345 69.204940 20.907137 31.942975 -157.190405 32.071129 -133.502920 -7.379327 10.721855 -17.743791 14.643542 8.941389 -6.010107 
-1.313247 0.039218 -0.417303 0.138598 -6.347514 -174.173018 -8.607369 -5.361526 0.453214 -2.909806 0.021453 4.055454 2.432653 7.572026 -6.521988 12.879336 11.350784 -11.353542 -2.788493 0.973338 -13.985336 -1.306957 -2.318532 59.893837 13.223874 -11.619166 -10.511675 -23.353126 5.647488 -13.834329 0.930681 1.211235 3.659020 1.488336 1.789422 2.596134 -0.766350 0.655653 2.158680 -8.433795 16.745263 -16.932381 -14.211474 12.552328 8.761607 -17.212007 -0.946900 2.787891 -73.443799 -3.563595 22.138365 161.549968 -69.662167 -148.453105 7.320675 -0.952081 -59.174325 -15.461290 -4.545990 2.215199 17.078526 7.310428 -2.528715 69.340704 19.024760 30.099930 -157.492976 32.505043 -132.739442 -8.361212 11.028217 -17.795545 13.550693 8.715940 -5.071564 
-1.307786 0.047912 -0.479696 1.948478 -10.660116 -174.630358 -6.959494 -4.198150 5.474685 -1.149103 -4.103693 4.935740 0.786867 7.048523 -11.201846 12.926329 9.660852 -8.773376 -1.749799 2.947267 -19.865112 -2.135190 -4.214802 37.621299 15.319154 -11.469220 -9.531532 -26.720131 5.941768 -9.482621 1.628363 -0.763586 4.812942 2.906202 0.716426 2.829017 0.936928 -0.301195 2.556851 -7.611281 17.778985 -16.361474 -13.041634 11.956875 8.483062 -15.379529 -1.900505 3.613046 -73.942264 -3.597282 22.710165 165.421375 -70.129573 -151.448127 7.263240 -2.023713 -58.632681 -15.337793 -5.105303 2.627726 16.610928 6.915742 -3.169446 69.623909 19.341759 29.233256 -157.260618 32.705335 -131.883136 -9.071022 11.347511 -18.233907 14.722310 9.483483 -5.530604 
-1.299068 0.066107 -0.544543 2.246843 -13.486997 -173.920463 -5.369954 -2.961083 10.293612 -1.065677 -7.120026 4.266594 -0.158065 5.672495 -16.190799 12.620694 8.139434 -5.283343 -2.828317 2.910151 -20.928997 -0.292671 -3.126686 8.885148 20.543611 -6.845569 -4.848394 -31.899070 6.832023 -5.902400 1.546915 -1.038850 3.749915 3.463594 -0.271467 3.963053 1.868068 -0.480467 2.531138 -6.376356 17.404011 -15.278491 -10.843463 9.503963 8.712433 -13.950247 -3.064271 3.799726 -73.967367 -3.234696 23.799887 167.665995 -69.960332 -154.192609 6.470102 -2.435847 -58.058136 -18.435197 -6.067900 2.074125 16.178128 7.234917 -3.179036 69.539514 20.020987 28.487692 -157.161352 32.274158 -132.860963 -8.179783 10.787627 -20.775665 18.813544 11.576028 -7.738527 
-1.288243 0.091169 -0.617941 1.672209 -17.131759 -172.897449 -3.250088 -1.822207 16.842881 -1.106952 -11.380409 0.641680 -1.579730 4.256634 -19.291765 13.117891 7.220182 -3.668531 -4.469168 1.516163 -21.232532 2.623502 -4.843687 -6.084568 24.399610 -5.994732 -2.718497 -34.816028 8.684112 -3.889779 1.570314 -1.212966 1.818612 3.681330 -0.593816 4.642212 2.088603 -0.521258 2.316025 -4.238589 15.934841 -13.903346 -9.035751 6.342198 9.733046 -14.438031 -3.621601 3.718404 -73.448073 -3.387143 24.939822 170.489325 -70.519180 -158.027369 8.581982 -1.080858 -56.470930 -20.667700 -7.458936 1.648325 17.114414 7.348041 -3.158555 68.155624 19.935058 27.619750 -157.706956 32.300083 -133.500386 -11.352530 9.756919 -16.784360 21.819159 13.930951 -9.250650 
